<svg width="22" height="22" viewBox="0 0 22 22" fill="none" xmlns="http://www.w3.org/2000/svg">
<path d="M8.25 18.5625C8.25 19.3218 7.6344 19.9375 6.875 19.9375C6.1156 19.9375 5.5 19.3218 5.5 18.5625C5.5 17.8032 6.1156 17.1875 6.875 17.1875C7.6344 17.1875 8.25 17.8032 8.25 18.5625Z" fill="black"/>
<path d="M17.1875 18.5625C17.1875 19.3218 16.5719 19.9375 15.8125 19.9375C15.0531 19.9375 14.4375 19.3218 14.4375 18.5625C14.4375 17.8032 15.0531 17.1875 15.8125 17.1875C16.5719 17.1875 17.1875 17.8032 17.1875 18.5625Z" fill="black"/>
<path fill-rule="evenodd" clip-rule="evenodd" d="M0.6875 2.0625H2.13125C2.13125 2.0625 2.59125 2.06201 2.95926 2.33921C2.95926 2.33921 3.32726 2.61641 3.45396 3.05938L4.15183 5.5H19.0523C19.1162 5.5 19.1798 5.5089 19.2412 5.52645C19.6063 5.63076 19.8177 6.01129 19.7134 6.37637L17.4455 14.314C17.4455 14.314 17.2579 14.9818 16.7038 15.3992C16.7038 15.3992 16.1498 15.8165 15.4602 15.8125L7.23134 15.8125C7.23134 15.8125 6.53771 15.8165 5.98365 15.3992C5.98365 15.3992 5.4296 14.9818 5.2429 14.3171L2.13198 3.4375L0.6875 3.4375C0.307804 3.4375 0 3.1297 0 2.75C0 2.3703 0.307804 2.0625 0.6875 2.0625ZM6.56491 13.9391L4.545 6.875H18.1409L16.1217 13.9422C16.1217 13.9422 16.0597 14.1629 15.8766 14.3009C15.8766 14.3009 15.6934 14.4388 15.4602 14.4375L7.22335 14.4375C7.22335 14.4375 6.99407 14.4388 6.81093 14.3009C6.81093 14.3009 6.62779 14.1629 6.56491 13.9391Z" fill="black"/>
</svg>
