<svg width="19" height="20" viewBox="0 0 19 20" fill="none" xmlns="http://www.w3.org/2000/svg">
<path d="M17.0405 17.5481C16.9297 17.6572 16.7805 17.7185 16.6249 17.7188C16.4672 17.7181 16.3158 17.657 16.2019 17.5481L12.9956 14.3344C11.6453 15.4686 9.90917 16.0377 8.14942 15.923C6.38967 15.8084 4.74213 15.0187 3.55041 13.7188C2.3587 12.419 1.71482 10.7092 1.75308 8.94613C1.79133 7.18306 2.50875 5.50282 3.75573 4.25585C5.0027 3.00888 6.68293 2.29145 8.446 2.2532C10.2091 2.21495 11.9188 2.85882 13.2187 4.05054C14.5186 5.24225 15.3082 6.88979 15.4229 8.64954C15.5376 10.4093 14.9685 12.1454 13.8343 13.4957L17.0405 16.702C17.0966 16.7572 17.1412 16.8231 17.1716 16.8957C17.202 16.9683 17.2177 17.0463 17.2177 17.125C17.2177 17.2038 17.202 17.2817 17.1716 17.3543C17.1412 17.427 17.0966 17.4928 17.0405 17.5481ZM8.60928 14.75C9.72489 14.75 10.8154 14.4192 11.743 13.7994C12.6706 13.1796 13.3936 12.2987 13.8205 11.268C14.2475 10.2373 14.3592 9.10314 14.1415 8.00897C13.9239 6.91479 13.3867 5.90973 12.5978 5.12087C11.8089 4.33202 10.8039 3.7948 9.70971 3.57716C8.61553 3.35951 7.48139 3.47121 6.4507 3.89814C5.42001 4.32507 4.53907 5.04804 3.91927 5.97564C3.29947 6.90323 2.96865 7.99379 2.96865 9.1094C2.97062 10.6048 3.56552 12.0384 4.62292 13.0958C5.68032 14.1532 7.11389 14.7481 8.60928 14.75Z" fill="white"/>
</svg>
