<svg width="17" height="16" viewBox="0 0 17 16" fill="none" xmlns="http://www.w3.org/2000/svg">
<path d="M16.0405 15.5479C15.9297 15.6571 15.7805 15.7184 15.6249 15.7187C15.4672 15.718 15.3158 15.6569 15.2019 15.5479L11.9956 12.3343C10.6453 13.4685 8.90917 14.0376 7.14942 13.9229C5.38967 13.8082 3.74213 13.0186 2.55041 11.7187C1.3587 10.4188 0.714825 8.70907 0.753077 6.946C0.791329 5.18293 1.50875 3.5027 2.75573 2.25573C4.0027 1.00875 5.68293 0.291329 7.446 0.253077C9.20907 0.214825 10.9188 0.8587 12.2187 2.05041C13.5186 3.24213 14.3082 4.88967 14.4229 6.64942C14.5376 8.40917 13.9685 10.1453 12.8343 11.4956L16.0405 14.7019C16.0966 14.7571 16.1412 14.823 16.1716 14.8956C16.202 14.9682 16.2177 15.0462 16.2177 15.1249C16.2177 15.2036 16.202 15.2816 16.1716 15.3542C16.1412 15.4268 16.0966 15.4927 16.0405 15.5479ZM7.60928 12.7499C8.72489 12.7499 9.81544 12.4191 10.743 11.7993C11.6706 11.1795 12.3936 10.2985 12.8205 9.26785C13.2475 8.23716 13.3592 7.10302 13.1415 6.00884C12.9239 4.91467 12.3867 3.90961 11.5978 3.12075C10.8089 2.3319 9.80388 1.79468 8.70971 1.57703C7.61553 1.35939 6.48139 1.47109 5.4507 1.89802C4.42001 2.32494 3.53907 3.04792 2.91927 3.97551C2.29947 4.90311 1.96865 5.99367 1.96865 7.10928C1.97062 8.60466 2.56552 10.0382 3.62292 11.0956C4.68032 12.153 6.11389 12.7479 7.60928 12.7499Z" fill="black"/>
</svg>
