<svg width="86" height="50" viewBox="0 0 86 50" fill="none" xmlns="http://www.w3.org/2000/svg">
<g clip-path="url(#clip0_192_2808)">
<path d="M59.4008 5.93155L57.4416 5.16293L55.6619 4.46345L54.4262 3.97641L53.1085 3.45932L44.3188 0V49.9948L50.5931 47.5256L53.1085 46.5365V12.9023L54.4262 13.4204L57.4346 14.6029H57.4386L59.4008 15.3755V24.9979L68.1583 21.5486L68.1864 9.38787L59.4008 5.93155Z" fill="black"/>
<path d="M34.2134 3.45531L31.657 4.46345L27.9211 5.93155L0 16.9178V26.3618L9.0241 22.8113V36.6275L17.8137 40.0868V19.352L19.1325 18.8349L27.9211 15.3755L34.2134 12.8993L41.8806 9.88392L43 9.44399V0L34.2134 3.45531Z" fill="black"/>
<path d="M34.2133 14.2981L27.9209 16.7743L19.1313 20.2336V40.6038L27.9209 44.0631V38.6065L34.2133 41.0828V46.5393L42.9989 49.9946V10.8428L34.2133 14.2981ZM34.2133 32.3743L31.5236 31.3141L29.7428 30.6146L27.9209 29.8971V26.2173L34.2133 23.7411V32.3743Z" fill="black"/>
<path d="M59.4008 34.6165L68.1864 31.1612L69.5082 30.6431V30.6401L77.2095 27.6107V22.3816L78.5313 22.9027L83.8546 24.9981L85.6313 25.6976L85.9981 25.8409V16.3969L85.491 16.1975L83.7173 15.498H83.7102L81.9365 14.7986L78.5303 13.4587L77.2085 12.9376L69.5072 9.9082V22.4858L68.1854 23.0039L59.3998 26.4632L54.4263 28.4184V46.0397L55.6609 45.5316L59.3998 44.0625L68.1854 40.6072L69.5072 40.0861L77.2085 37.0567L78.5303 36.5356L85.9981 33.5973V27.2389L83.8535 26.3961L78.5303 28.4875L77.2085 29.0086L69.5072 32.038L68.1854 32.5591L59.3998 36.0145V34.6185" fill="black"/>
</g>
<defs>
<clipPath id="clip0_192_2808">
<rect width="86" height="49.9948" fill="white"/>
</clipPath>
</defs>
</svg>
